<svg width="1200" height="800" viewBox="0 0 1200 800" fill="none" xmlns="http://www.w3.org/2000/svg">
  <defs>
    <linearGradient id="panel" x1="0" y1="0" x2="1" y2="1">
      <stop offset="0%" stop-color="#F1F5F9"/>
      <stop offset="100%" stop-color="#E2E8F0"/>
    </linearGradient>
  </defs>
  <rect width="1200" height="800" fill="url(#panel)"/>
  <rect x="120" y="120" width="960" height="560" rx="36" fill="#FFFFFF" stroke="#E2E8F0"/>
  <rect x="200" y="200" width="360" height="220" rx="24" fill="#0B1F3A"/>
  <rect x="620" y="200" width="360" height="220" rx="24" fill="#12304F"/>
  <rect x="200" y="460" width="300" height="140" rx="20" fill="#D4A373"/>
  <rect x="540" y="460" width="440" height="140" rx="20" fill="#1E3A5F"/>
  <path d="M320 300C320 270 344 246 374 246H386C416 246 440 270 440 300V360H320V300Z" fill="#F1F5F9"/>
  <path d="M730 300C730 270 754 246 784 246H796C826 246 850 270 850 300V360H730V300Z" fill="#F1F5F9"/>
  <path d="M560 380C560 360 576 344 596 344H604C624 344 640 360 640 380V430H560V380Z" fill="#CBD5E1"/>
  <path d="M340 530H460" stroke="#0B1F3A" stroke-width="10" stroke-linecap="round"/>
  <path d="M600 530H900" stroke="#F1F5F9" stroke-width="10" stroke-linecap="round"/>
</svg>
